<svg width="1920" height="117" viewBox="0 0 1920 117" fill="none" xmlns="http://www.w3.org/2000/svg">
<path d="M703.416 63L707.4 51.32H711.112L715.208 63H712.872L709.4 52.872L710.216 53.224H708.216L709.048 52.872L705.688 63H703.416ZM706.2 59.896L706.92 57.976H711.656L712.36 59.896H706.2ZM719.802 63.272C718.799 63.272 718.021 62.9413 717.466 62.28C716.922 61.6187 716.65 60.6373 716.65 59.336V54.296H718.874V59.528C718.874 60.0613 719.023 60.488 719.322 60.808C719.621 61.1173 720.026 61.272 720.538 61.272C721.05 61.272 721.466 61.1067 721.786 60.776C722.117 60.4453 722.282 59.9973 722.282 59.432V54.296H724.506V63H722.746V59.304H722.922C722.922 60.1787 722.81 60.9093 722.586 61.496C722.362 62.0827 722.026 62.5253 721.578 62.824C721.13 63.1227 720.57 63.272 719.898 63.272H719.802ZM731.117 63.304C730.36 63.304 729.704 63.176 729.149 62.92C728.605 62.664 728.146 62.3227 727.773 61.896C727.41 61.4693 727.138 60.9893 726.957 60.456C726.776 59.9227 726.685 59.3787 726.685 58.824V58.52C726.685 57.9333 726.776 57.3733 726.957 56.84C727.149 56.296 727.432 55.816 727.805 55.4C728.178 54.9733 728.637 54.6373 729.181 54.392C729.736 54.136 730.376 54.008 731.101 54.008C731.858 54.008 732.536 54.1573 733.133 54.456C733.73 54.744 734.205 55.1493 734.557 55.672C734.92 56.1947 735.122 56.8027 735.165 57.496H733.005C732.952 57.048 732.76 56.6747 732.429 56.376C732.109 56.0773 731.666 55.928 731.101 55.928C730.61 55.928 730.2 56.0453 729.869 56.28C729.549 56.5147 729.309 56.84 729.149 57.256C728.989 57.6613 728.909 58.1307 728.909 58.664C728.909 59.176 728.984 59.64 729.133 60.056C729.293 60.472 729.533 60.7973 729.853 61.032C730.184 61.2667 730.605 61.384 731.117 61.384C731.501 61.384 731.832 61.3147 732.109 61.176C732.386 61.0373 732.605 60.8453 732.765 60.6C732.936 60.3547 733.042 60.0773 733.085 59.768H735.245C735.202 60.472 734.994 61.0907 734.621 61.624C734.258 62.1467 733.773 62.5573 733.165 62.856C732.568 63.1547 731.885 63.304 731.117 63.304ZM741.002 63.112C740.202 63.112 739.541 63.0107 739.018 62.808C738.506 62.5947 738.122 62.2427 737.866 61.752C737.61 61.2507 737.482 60.5787 737.482 59.736L737.498 51.864H739.578L739.562 59.88C739.562 60.3067 739.674 60.6373 739.898 60.872C740.133 61.096 740.464 61.208 740.89 61.208H742.25V63.112H741.002ZM736.106 55.944V54.312H742.25V55.944H736.106ZM744.733 63V54.312H746.957V63H744.733ZM743.517 55.976V54.312H746.957V55.976H743.517ZM745.549 53.272C745.112 53.272 744.786 53.16 744.573 52.936C744.37 52.7013 744.269 52.408 744.269 52.056C744.269 51.704 744.37 51.416 744.573 51.192C744.786 50.968 745.112 50.856 745.549 50.856C745.986 50.856 746.306 50.968 746.509 51.192C746.712 51.416 746.813 51.704 746.813 52.056C746.813 52.408 746.712 52.7013 746.509 52.936C746.306 53.16 745.986 53.272 745.549 53.272ZM753.896 63.304C753.128 63.304 752.451 63.1813 751.864 62.936C751.278 62.6907 750.782 62.36 750.376 61.944C749.971 61.5173 749.662 61.0373 749.448 60.504C749.246 59.9707 749.144 59.416 749.144 58.84V58.504C749.144 57.9067 749.251 57.3413 749.464 56.808C749.688 56.264 750.003 55.784 750.408 55.368C750.824 54.9413 751.326 54.6107 751.912 54.376C752.499 54.1307 753.16 54.008 753.896 54.008C754.632 54.008 755.294 54.1307 755.88 54.376C756.467 54.6107 756.963 54.9413 757.368 55.368C757.784 55.784 758.099 56.264 758.312 56.808C758.526 57.3413 758.632 57.9067 758.632 58.504V58.84C758.632 59.416 758.526 59.9707 758.312 60.504C758.11 61.0373 757.806 61.5173 757.4 61.944C756.995 62.36 756.499 62.6907 755.912 62.936C755.326 63.1813 754.654 63.304 753.896 63.304ZM753.896 61.4C754.44 61.4 754.899 61.2827 755.272 61.048C755.646 60.8027 755.928 60.4773 756.12 60.072C756.312 59.656 756.408 59.1867 756.408 58.664C756.408 58.1307 756.307 57.6613 756.104 57.256C755.912 56.84 755.624 56.5147 755.24 56.28C754.867 56.0347 754.419 55.912 753.896 55.912C753.374 55.912 752.92 56.0347 752.536 56.28C752.163 56.5147 751.875 56.84 751.672 57.256C751.47 57.6613 751.368 58.1307 751.368 58.664C751.368 59.1867 751.464 59.656 751.656 60.072C751.859 60.4773 752.147 60.8027 752.52 61.048C752.894 61.2827 753.352 61.4 753.896 61.4ZM760.78 63V54.312H762.54V58.04H762.38C762.38 57.1547 762.497 56.4187 762.732 55.832C762.966 55.2347 763.313 54.7867 763.772 54.488C764.241 54.1893 764.822 54.04 765.516 54.04H765.612C766.646 54.04 767.43 54.376 767.964 55.048C768.497 55.7093 768.764 56.7013 768.764 58.024V63H766.54V57.832C766.54 57.2987 766.385 56.8667 766.076 56.536C765.777 56.2053 765.361 56.04 764.828 56.04C764.284 56.04 763.841 56.2107 763.5 56.552C763.169 56.8827 763.004 57.3307 763.004 57.896V63H760.78ZM774.507 63.272C773.312 63.272 772.373 63.0213 771.691 62.52C771.019 62.008 770.667 61.304 770.635 60.408H772.635C772.667 60.7067 772.832 60.9787 773.131 61.224C773.429 61.4693 773.899 61.592 774.539 61.592C775.072 61.592 775.493 61.496 775.803 61.304C776.123 61.112 776.283 60.8507 776.283 60.52C776.283 60.232 776.16 60.0027 775.915 59.832C775.68 59.6613 775.275 59.5493 774.699 59.496L773.931 59.416C772.96 59.3093 772.213 59.032 771.691 58.584C771.168 58.136 770.907 57.5387 770.907 56.792C770.907 56.1947 771.056 55.6933 771.355 55.288C771.653 54.8827 772.064 54.5787 772.587 54.376C773.12 54.1627 773.728 54.056 774.411 54.056C775.477 54.056 776.341 54.2907 777.003 54.76C777.664 55.2293 778.011 55.9173 778.043 56.824H776.043C776.021 56.5253 775.872 56.2693 775.595 56.056C775.317 55.8427 774.917 55.736 774.395 55.736C773.925 55.736 773.563 55.8267 773.307 56.008C773.051 56.1893 772.923 56.424 772.923 56.712C772.923 56.9893 773.024 57.2027 773.227 57.352C773.44 57.5013 773.781 57.6027 774.251 57.656L775.019 57.736C776.043 57.8427 776.843 58.1253 777.419 58.584C778.005 59.0427 778.299 59.6613 778.299 60.44C778.299 61.016 778.139 61.5173 777.819 61.944C777.509 62.36 777.072 62.6853 776.507 62.92C775.941 63.1547 775.275 63.272 774.507 63.272Z" fill="#7780A1"/>
<path d="M844.817 63V51.24H847.089V63H844.817ZM851.953 63L848.369 57.912H850.913L854.609 63H851.953ZM846.417 59.096V57.256H849.393C849.809 57.256 850.166 57.1707 850.465 57C850.774 56.8293 851.014 56.5893 851.185 56.28C851.355 55.9707 851.441 55.6187 851.441 55.224C851.441 54.8187 851.355 54.4613 851.185 54.152C851.014 53.8427 850.774 53.6027 850.465 53.432C850.166 53.2613 849.809 53.176 849.393 53.176H846.417V51.24H849.153C850.091 51.24 850.902 51.3787 851.585 51.656C852.278 51.9333 852.811 52.3547 853.185 52.92C853.558 53.4853 853.745 54.1947 853.745 55.048V55.304C853.745 56.168 853.553 56.8773 853.169 57.432C852.795 57.9867 852.267 58.4027 851.585 58.68C850.902 58.9573 850.091 59.096 849.153 59.096H846.417ZM860.376 63.304C859.608 63.304 858.931 63.1813 858.344 62.936C857.757 62.6907 857.261 62.36 856.856 61.944C856.451 61.5173 856.141 61.0373 855.928 60.504C855.725 59.9707 855.624 59.416 855.624 58.84V58.504C855.624 57.9067 855.731 57.3413 855.944 56.808C856.168 56.264 856.483 55.784 856.888 55.368C857.304 54.9413 857.805 54.6107 858.392 54.376C858.979 54.1307 859.64 54.008 860.376 54.008C861.112 54.008 861.773 54.1307 862.36 54.376C862.947 54.6107 863.443 54.9413 863.848 55.368C864.264 55.784 864.579 56.264 864.792 56.808C865.005 57.3413 865.112 57.9067 865.112 58.504V58.84C865.112 59.416 865.005 59.9707 864.792 60.504C864.589 61.0373 864.285 61.5173 863.88 61.944C863.475 62.36 862.979 62.6907 862.392 62.936C861.805 63.1813 861.133 63.304 860.376 63.304ZM860.376 61.4C860.92 61.4 861.379 61.2827 861.752 61.048C862.125 60.8027 862.408 60.4773 862.6 60.072C862.792 59.656 862.888 59.1867 862.888 58.664C862.888 58.1307 862.787 57.6613 862.584 57.256C862.392 56.84 862.104 56.5147 861.72 56.28C861.347 56.0347 860.899 55.912 860.376 55.912C859.853 55.912 859.4 56.0347 859.016 56.28C858.643 56.5147 858.355 56.84 858.152 57.256C857.949 57.6613 857.848 58.1307 857.848 58.664C857.848 59.1867 857.944 59.656 858.136 60.072C858.339 60.4773 858.627 60.8027 859 61.048C859.373 61.2827 859.832 61.4 860.376 61.4ZM872.523 63V60.424H872.155V57.56C872.155 57.0587 872.033 56.6853 871.787 56.44C871.542 56.1947 871.163 56.072 870.651 56.072C870.385 56.072 870.065 56.0773 869.691 56.088C869.318 56.0987 868.939 56.1147 868.555 56.136C868.182 56.1467 867.846 56.1627 867.547 56.184V54.296C867.793 54.2747 868.07 54.2533 868.379 54.232C868.689 54.2107 869.003 54.2 869.323 54.2C869.654 54.1893 869.963 54.184 870.251 54.184C871.147 54.184 871.889 54.3013 872.475 54.536C873.073 54.7707 873.521 55.1387 873.819 55.64C874.129 56.1413 874.283 56.7973 874.283 57.608V63H872.523ZM869.723 63.224C869.094 63.224 868.539 63.112 868.059 62.888C867.59 62.664 867.222 62.344 866.955 61.928C866.699 61.512 866.571 61.0107 866.571 60.424C866.571 59.784 866.726 59.2613 867.035 58.856C867.355 58.4507 867.798 58.1467 868.363 57.944C868.939 57.7413 869.611 57.64 870.379 57.64H872.395V58.968H870.347C869.835 58.968 869.441 59.096 869.163 59.352C868.897 59.5973 868.763 59.9173 868.763 60.312C868.763 60.7067 868.897 61.0267 869.163 61.272C869.441 61.5173 869.835 61.64 870.347 61.64C870.657 61.64 870.939 61.5867 871.195 61.48C871.462 61.3627 871.681 61.1707 871.851 60.904C872.033 60.6267 872.134 60.2533 872.155 59.784L872.699 60.408C872.646 61.016 872.497 61.528 872.251 61.944C872.017 62.36 871.686 62.68 871.259 62.904C870.843 63.1173 870.331 63.224 869.723 63.224ZM880.466 63.288C879.858 63.288 879.298 63.176 878.786 62.952C878.274 62.728 877.831 62.4133 877.458 62.008C877.084 61.6027 876.796 61.1333 876.594 60.6C876.391 60.056 876.29 59.4693 876.29 58.84V58.504C876.29 57.8853 876.386 57.304 876.578 56.76C876.78 56.216 877.058 55.7413 877.41 55.336C877.772 54.9307 878.204 54.616 878.706 54.392C879.218 54.1573 879.783 54.04 880.402 54.04C881.084 54.04 881.682 54.1893 882.194 54.488C882.716 54.776 883.132 55.2133 883.442 55.8C883.751 56.3867 883.922 57.1227 883.954 58.008L883.298 57.24V51.32H885.522V63H883.762V59.304H884.146C884.114 60.1893 883.932 60.9307 883.602 61.528C883.271 62.1147 882.834 62.5573 882.29 62.856C881.756 63.144 881.148 63.288 880.466 63.288ZM880.962 61.416C881.399 61.416 881.799 61.32 882.162 61.128C882.524 60.9253 882.812 60.6373 883.026 60.264C883.25 59.88 883.362 59.432 883.362 58.92V58.28C883.362 57.768 883.25 57.3413 883.026 57C882.802 56.648 882.508 56.3813 882.146 56.2C881.783 56.008 881.388 55.912 880.962 55.912C880.482 55.912 880.055 56.0293 879.682 56.264C879.319 56.488 879.031 56.808 878.818 57.224C878.615 57.64 878.514 58.1253 878.514 58.68C878.514 59.2347 878.62 59.72 878.834 60.136C879.047 60.5413 879.335 60.856 879.698 61.08C880.071 61.304 880.492 61.416 880.962 61.416ZM888.253 63V54.312H890.013V58.04H889.853C889.853 57.1653 889.965 56.4347 890.189 55.848C890.413 55.2507 890.744 54.8027 891.181 54.504C891.629 54.1947 892.184 54.04 892.845 54.04H892.941C893.613 54.04 894.168 54.1947 894.605 54.504C895.053 54.8027 895.384 55.2507 895.597 55.848C895.821 56.4347 895.933 57.1653 895.933 58.04H895.373C895.373 57.1653 895.485 56.4347 895.709 55.848C895.944 55.2507 896.28 54.8027 896.717 54.504C897.165 54.1947 897.72 54.04 898.381 54.04H898.477C899.149 54.04 899.709 54.1947 900.157 54.504C900.605 54.8027 900.941 55.2507 901.165 55.848C901.4 56.4347 901.517 57.1653 901.517 58.04V63H899.293V57.832C899.293 57.288 899.154 56.856 898.877 56.536C898.6 56.2053 898.205 56.04 897.693 56.04C897.181 56.04 896.77 56.2107 896.461 56.552C896.152 56.8827 895.997 57.3307 895.997 57.896V63H893.773V57.832C893.773 57.288 893.634 56.856 893.357 56.536C893.08 56.2053 892.685 56.04 892.173 56.04C891.661 56.04 891.25 56.2107 890.941 56.552C890.632 56.8827 890.477 57.3307 890.477 57.896V63H888.253ZM909.358 63V60.424H908.99V57.56C908.99 57.0587 908.867 56.6853 908.622 56.44C908.376 56.1947 907.998 56.072 907.486 56.072C907.219 56.072 906.899 56.0773 906.526 56.088C906.152 56.0987 905.774 56.1147 905.39 56.136C905.016 56.1467 904.68 56.1627 904.382 56.184V54.296C904.627 54.2747 904.904 54.2533 905.214 54.232C905.523 54.2107 905.838 54.2 906.158 54.2C906.488 54.1893 906.798 54.184 907.086 54.184C907.982 54.184 908.723 54.3013 909.31 54.536C909.907 54.7707 910.355 55.1387 910.654 55.64C910.963 56.1413 911.118 56.7973 911.118 57.608V63H909.358ZM906.558 63.224C905.928 63.224 905.374 63.112 904.894 62.888C904.424 62.664 904.056 62.344 903.79 61.928C903.534 61.512 903.406 61.0107 903.406 60.424C903.406 59.784 903.56 59.2613 903.87 58.856C904.19 58.4507 904.632 58.1467 905.198 57.944C905.774 57.7413 906.446 57.64 907.214 57.64H909.23V58.968H907.182C906.67 58.968 906.275 59.096 905.998 59.352C905.731 59.5973 905.598 59.9173 905.598 60.312C905.598 60.7067 905.731 61.0267 905.998 61.272C906.275 61.5173 906.67 61.64 907.182 61.64C907.491 61.64 907.774 61.5867 908.03 61.48C908.296 61.3627 908.515 61.1707 908.686 60.904C908.867 60.6267 908.968 60.2533 908.99 59.784L909.534 60.408C909.48 61.016 909.331 61.528 909.086 61.944C908.851 62.36 908.52 62.68 908.094 62.904C907.678 63.1173 907.166 63.224 906.558 63.224ZM913.7 66.2V54.312H915.46V58.056L915.188 58.04C915.231 57.1547 915.412 56.4133 915.732 55.816C916.063 55.2187 916.5 54.776 917.044 54.488C917.588 54.1893 918.196 54.04 918.868 54.04C919.487 54.04 920.041 54.152 920.532 54.376C921.033 54.6 921.46 54.9147 921.812 55.32C922.175 55.7253 922.452 56.2 922.644 56.744C922.836 57.2773 922.932 57.8533 922.932 58.472V58.808C922.932 59.4373 922.836 60.024 922.644 60.568C922.463 61.1013 922.191 61.576 921.828 61.992C921.476 62.3973 921.049 62.7173 920.548 62.952C920.047 63.176 919.487 63.288 918.868 63.288C918.217 63.288 917.62 63.1547 917.076 62.888C916.543 62.6107 916.111 62.1893 915.78 61.624C915.449 61.048 915.263 60.3067 915.22 59.4L915.924 60.472V66.2H913.7ZM918.308 61.416C918.788 61.416 919.204 61.2987 919.556 61.064C919.919 60.8293 920.201 60.504 920.404 60.088C920.607 59.6613 920.708 59.1813 920.708 58.648C920.708 58.0933 920.607 57.6133 920.404 57.208C920.201 56.8027 919.919 56.488 919.556 56.264C919.204 56.0293 918.788 55.912 918.308 55.912C917.871 55.912 917.465 56.008 917.092 56.2C916.729 56.392 916.431 56.6747 916.196 57.048C915.972 57.4213 915.86 57.8693 915.86 58.392V59.032C915.86 59.5333 915.977 59.96 916.212 60.312C916.447 60.664 916.751 60.936 917.124 61.128C917.497 61.32 917.892 61.416 918.308 61.416Z" fill="#7780A1"/>
<path d="M991.825 63.064V60.952H994.241C994.849 60.952 995.387 60.8613 995.857 60.68C996.337 60.488 996.742 60.2213 997.073 59.88C997.403 59.5387 997.654 59.1387 997.825 58.68C998.006 58.2107 998.097 57.6933 998.097 57.128C998.097 56.5413 998.006 56.0187 997.825 55.56C997.654 55.0907 997.403 54.6907 997.073 54.36C996.742 54.0293 996.337 53.7787 995.857 53.608C995.387 53.4373 994.849 53.352 994.241 53.352H991.825V51.24H994.097C995.153 51.24 996.075 51.3947 996.865 51.704C997.654 52.0133 998.31 52.44 998.833 52.984C999.355 53.5173 999.745 54.1307 1000 54.824C1000.27 55.5067 1000.4 56.216 1000.4 56.952V57.304C1000.4 58.008 1000.27 58.7013 1000 59.384C999.745 60.0667 999.355 60.6853 998.833 61.24C998.31 61.7947 997.654 62.2373 996.865 62.568C996.075 62.8987 995.153 63.064 994.097 63.064H991.825ZM989.873 63.064V51.24H992.145V63.064H989.873ZM1002.88 63V54.312H1005.1V63H1002.88ZM1001.66 55.976V54.312H1005.1V55.976H1001.66ZM1003.69 53.272C1003.25 53.272 1002.93 53.16 1002.72 52.936C1002.51 52.7013 1002.41 52.408 1002.41 52.056C1002.41 51.704 1002.51 51.416 1002.72 51.192C1002.93 50.968 1003.25 50.856 1003.69 50.856C1004.13 50.856 1004.45 50.968 1004.65 51.192C1004.85 51.416 1004.96 51.704 1004.96 52.056C1004.96 52.408 1004.85 52.7013 1004.65 52.936C1004.45 53.16 1004.13 53.272 1003.69 53.272ZM1011.01 63.272C1009.82 63.272 1008.88 63.0213 1008.2 62.52C1007.53 62.008 1007.17 61.304 1007.14 60.408H1009.14C1009.17 60.7067 1009.34 60.9787 1009.64 61.224C1009.94 61.4693 1010.41 61.592 1011.05 61.592C1011.58 61.592 1012 61.496 1012.31 61.304C1012.63 61.112 1012.79 60.8507 1012.79 60.52C1012.79 60.232 1012.67 60.0027 1012.42 59.832C1012.19 59.6613 1011.78 59.5493 1011.21 59.496L1010.44 59.416C1009.47 59.3093 1008.72 59.032 1008.2 58.584C1007.68 58.136 1007.41 57.5387 1007.41 56.792C1007.41 56.1947 1007.56 55.6933 1007.86 55.288C1008.16 54.8827 1008.57 54.5787 1009.09 54.376C1009.63 54.1627 1010.24 54.056 1010.92 54.056C1011.99 54.056 1012.85 54.2907 1013.51 54.76C1014.17 55.2293 1014.52 55.9173 1014.55 56.824H1012.55C1012.53 56.5253 1012.38 56.2693 1012.1 56.056C1011.83 55.8427 1011.43 55.736 1010.9 55.736C1010.43 55.736 1010.07 55.8267 1009.81 56.008C1009.56 56.1893 1009.43 56.424 1009.43 56.712C1009.43 56.9893 1009.53 57.2027 1009.73 57.352C1009.95 57.5013 1010.29 57.6027 1010.76 57.656L1011.53 57.736C1012.55 57.8427 1013.35 58.1253 1013.93 58.584C1014.51 59.0427 1014.81 59.6613 1014.81 60.44C1014.81 61.016 1014.65 61.5173 1014.33 61.944C1014.02 62.36 1013.58 62.6853 1013.01 62.92C1012.45 63.1547 1011.78 63.272 1011.01 63.272ZM1020.7 63.304C1019.94 63.304 1019.29 63.176 1018.73 62.92C1018.19 62.664 1017.73 62.3227 1017.36 61.896C1016.99 61.4693 1016.72 60.9893 1016.54 60.456C1016.36 59.9227 1016.27 59.3787 1016.27 58.824V58.52C1016.27 57.9333 1016.36 57.3733 1016.54 56.84C1016.73 56.296 1017.01 55.816 1017.39 55.4C1017.76 54.9733 1018.22 54.6373 1018.76 54.392C1019.32 54.136 1019.96 54.008 1020.68 54.008C1021.44 54.008 1022.12 54.1573 1022.72 54.456C1023.31 54.744 1023.79 55.1493 1024.14 55.672C1024.5 56.1947 1024.71 56.8027 1024.75 57.496H1022.59C1022.53 57.048 1022.34 56.6747 1022.01 56.376C1021.69 56.0773 1021.25 55.928 1020.68 55.928C1020.19 55.928 1019.78 56.0453 1019.45 56.28C1019.13 56.5147 1018.89 56.84 1018.73 57.256C1018.57 57.6613 1018.49 58.1307 1018.49 58.664C1018.49 59.176 1018.57 59.64 1018.72 60.056C1018.88 60.472 1019.12 60.7973 1019.44 61.032C1019.77 61.2667 1020.19 61.384 1020.7 61.384C1021.08 61.384 1021.41 61.3147 1021.69 61.176C1021.97 61.0373 1022.19 60.8453 1022.35 60.6C1022.52 60.3547 1022.63 60.0773 1022.67 59.768H1024.83C1024.79 60.472 1024.58 61.0907 1024.2 61.624C1023.84 62.1467 1023.36 62.5573 1022.75 62.856C1022.15 63.1547 1021.47 63.304 1020.7 63.304ZM1030.99 63.304C1030.22 63.304 1029.54 63.1813 1028.95 62.936C1028.37 62.6907 1027.87 62.36 1027.47 61.944C1027.06 61.5173 1026.75 61.0373 1026.54 60.504C1026.33 59.9707 1026.23 59.416 1026.23 58.84V58.504C1026.23 57.9067 1026.34 57.3413 1026.55 56.808C1026.78 56.264 1027.09 55.784 1027.5 55.368C1027.91 54.9413 1028.41 54.6107 1029 54.376C1029.59 54.1307 1030.25 54.008 1030.99 54.008C1031.72 54.008 1032.38 54.1307 1032.97 54.376C1033.56 54.6107 1034.05 54.9413 1034.46 55.368C1034.87 55.784 1035.19 56.264 1035.4 56.808C1035.61 57.3413 1035.72 57.9067 1035.72 58.504V58.84C1035.72 59.416 1035.61 59.9707 1035.4 60.504C1035.2 61.0373 1034.89 61.5173 1034.49 61.944C1034.08 62.36 1033.59 62.6907 1033 62.936C1032.41 63.1813 1031.74 63.304 1030.99 63.304ZM1030.99 61.4C1031.53 61.4 1031.99 61.2827 1032.36 61.048C1032.73 60.8027 1033.02 60.4773 1033.21 60.072C1033.4 59.656 1033.5 59.1867 1033.5 58.664C1033.5 58.1307 1033.4 57.6613 1033.19 57.256C1033 56.84 1032.71 56.5147 1032.33 56.28C1031.96 56.0347 1031.51 55.912 1030.99 55.912C1030.46 55.912 1030.01 56.0347 1029.63 56.28C1029.25 56.5147 1028.96 56.84 1028.76 57.256C1028.56 57.6613 1028.46 58.1307 1028.46 58.664C1028.46 59.1867 1028.55 59.656 1028.75 60.072C1028.95 60.4773 1029.24 60.8027 1029.61 61.048C1029.98 61.2827 1030.44 61.4 1030.99 61.4ZM1039.43 63L1036.71 54.312H1038.99L1041.6 63H1039.43ZM1040.08 63V61.176H1042.43V63H1040.08ZM1040.96 63L1043.2 54.312H1045.35L1042.99 63H1040.96ZM1050.93 63.304C1050.18 63.304 1049.52 63.176 1048.96 62.92C1048.4 62.664 1047.94 62.3227 1047.57 61.896C1047.2 61.4587 1046.93 60.9733 1046.73 60.44C1046.55 59.9067 1046.46 59.3627 1046.46 58.808V58.504C1046.46 57.928 1046.55 57.3733 1046.73 56.84C1046.93 56.296 1047.2 55.816 1047.57 55.4C1047.94 54.9733 1048.4 54.6373 1048.94 54.392C1049.49 54.136 1050.11 54.008 1050.83 54.008C1051.77 54.008 1052.55 54.216 1053.18 54.632C1053.82 55.0373 1054.3 55.576 1054.62 56.248C1054.94 56.9093 1055.1 57.624 1055.1 58.392V59.192H1047.41V57.832H1053.71L1053.02 58.504C1053.02 57.9493 1052.94 57.4747 1052.78 57.08C1052.62 56.6853 1052.38 56.3813 1052.05 56.168C1051.73 55.9547 1051.32 55.848 1050.83 55.848C1050.34 55.848 1049.92 55.96 1049.58 56.184C1049.24 56.408 1048.98 56.7333 1048.8 57.16C1048.63 57.576 1048.54 58.0773 1048.54 58.664C1048.54 59.208 1048.63 59.6933 1048.8 60.12C1048.97 60.536 1049.23 60.8667 1049.58 61.112C1049.93 61.3467 1050.38 61.464 1050.93 61.464C1051.47 61.464 1051.91 61.3573 1052.25 61.144C1052.59 60.92 1052.81 60.648 1052.91 60.328H1054.96C1054.83 60.9253 1054.58 61.448 1054.22 61.896C1053.86 62.344 1053.39 62.6907 1052.83 62.936C1052.27 63.1813 1051.64 63.304 1050.93 63.304ZM1057.16 63V54.312H1058.92V57.992H1058.87C1058.87 56.744 1059.14 55.8 1059.67 55.16C1060.2 54.52 1060.99 54.2 1062.02 54.2H1062.34V56.136H1061.74C1060.99 56.136 1060.41 56.3387 1059.99 56.744C1059.59 57.1387 1059.38 57.7147 1059.38 58.472V63H1057.16Z" fill="#7780A1"/>
<path d="M1134.11 63.304C1133.05 63.304 1132.14 63.1173 1131.39 62.744C1130.63 62.3707 1130.01 61.8853 1129.53 61.288C1129.06 60.6907 1128.72 60.04 1128.49 59.336C1128.27 58.632 1128.16 57.9547 1128.16 57.304V56.952C1128.16 56.2267 1128.27 55.512 1128.49 54.808C1128.73 54.104 1129.08 53.464 1129.56 52.888C1130.04 52.312 1130.65 51.8533 1131.39 51.512C1132.13 51.16 1133.01 50.984 1134.03 50.984C1135.08 50.984 1136 51.176 1136.78 51.56C1137.57 51.9333 1138.2 52.4667 1138.67 53.16C1139.14 53.8427 1139.42 54.6427 1139.52 55.56H1137.23C1137.14 55.0267 1136.95 54.5787 1136.65 54.216C1136.36 53.8427 1136 53.5653 1135.55 53.384C1135.1 53.192 1134.59 53.096 1134.03 53.096C1133.45 53.096 1132.94 53.1973 1132.49 53.4C1132.04 53.592 1131.67 53.8693 1131.37 54.232C1131.07 54.5947 1130.84 55.0213 1130.68 55.512C1130.53 56.0027 1130.46 56.5467 1130.46 57.144C1130.46 57.72 1130.53 58.2533 1130.68 58.744C1130.84 59.2347 1131.08 59.6667 1131.39 60.04C1131.7 60.4027 1132.08 60.6853 1132.52 60.888C1132.98 61.0907 1133.51 61.192 1134.11 61.192C1134.98 61.192 1135.72 60.9787 1136.32 60.552C1136.92 60.1147 1137.29 59.5067 1137.42 58.728H1139.71C1139.6 59.56 1139.32 60.3227 1138.86 61.016C1138.4 61.7093 1137.77 62.264 1136.97 62.68C1136.17 63.096 1135.22 63.304 1134.11 63.304ZM1145.82 63.304C1145.06 63.304 1144.38 63.1813 1143.79 62.936C1143.21 62.6907 1142.71 62.36 1142.3 61.944C1141.9 61.5173 1141.59 61.0373 1141.38 60.504C1141.17 59.9707 1141.07 59.416 1141.07 58.84V58.504C1141.07 57.9067 1141.18 57.3413 1141.39 56.808C1141.62 56.264 1141.93 55.784 1142.34 55.368C1142.75 54.9413 1143.25 54.6107 1143.84 54.376C1144.43 54.1307 1145.09 54.008 1145.82 54.008C1146.56 54.008 1147.22 54.1307 1147.81 54.376C1148.4 54.6107 1148.89 54.9413 1149.3 55.368C1149.71 55.784 1150.03 56.264 1150.24 56.808C1150.45 57.3413 1150.56 57.9067 1150.56 58.504V58.84C1150.56 59.416 1150.45 59.9707 1150.24 60.504C1150.04 61.0373 1149.73 61.5173 1149.33 61.944C1148.92 62.36 1148.43 62.6907 1147.84 62.936C1147.25 63.1813 1146.58 63.304 1145.82 63.304ZM1145.82 61.4C1146.37 61.4 1146.83 61.2827 1147.2 61.048C1147.57 60.8027 1147.86 60.4773 1148.05 60.072C1148.24 59.656 1148.34 59.1867 1148.34 58.664C1148.34 58.1307 1148.24 57.6613 1148.03 57.256C1147.84 56.84 1147.55 56.5147 1147.17 56.28C1146.8 56.0347 1146.35 55.912 1145.82 55.912C1145.3 55.912 1144.85 56.0347 1144.46 56.28C1144.09 56.5147 1143.8 56.84 1143.6 57.256C1143.4 57.6613 1143.3 58.1307 1143.3 58.664C1143.3 59.1867 1143.39 59.656 1143.58 60.072C1143.79 60.4773 1144.08 60.8027 1144.45 61.048C1144.82 61.2827 1145.28 61.4 1145.82 61.4ZM1152.71 63V54.312H1154.47V58.04H1154.31C1154.31 57.1653 1154.42 56.4347 1154.64 55.848C1154.87 55.2507 1155.2 54.8027 1155.64 54.504C1156.08 54.1947 1156.64 54.04 1157.3 54.04H1157.4C1158.07 54.04 1158.62 54.1947 1159.06 54.504C1159.51 54.8027 1159.84 55.2507 1160.05 55.848C1160.28 56.4347 1160.39 57.1653 1160.39 58.04H1159.83C1159.83 57.1653 1159.94 56.4347 1160.16 55.848C1160.4 55.2507 1160.73 54.8027 1161.17 54.504C1161.62 54.1947 1162.17 54.04 1162.84 54.04H1162.93C1163.6 54.04 1164.16 54.1947 1164.61 54.504C1165.06 54.8027 1165.4 55.2507 1165.62 55.848C1165.85 56.4347 1165.97 57.1653 1165.97 58.04V63H1163.75V57.832C1163.75 57.288 1163.61 56.856 1163.33 56.536C1163.05 56.2053 1162.66 56.04 1162.15 56.04C1161.64 56.04 1161.23 56.2107 1160.92 56.552C1160.61 56.8827 1160.45 57.3307 1160.45 57.896V63H1158.23V57.832C1158.23 57.288 1158.09 56.856 1157.81 56.536C1157.53 56.2053 1157.14 56.04 1156.63 56.04C1156.12 56.04 1155.71 56.2107 1155.4 56.552C1155.09 56.8827 1154.93 57.3307 1154.93 57.896V63H1152.71ZM1168.55 63V54.312H1170.31V58.04H1170.15C1170.15 57.1653 1170.26 56.4347 1170.48 55.848C1170.71 55.2507 1171.04 54.8027 1171.48 54.504C1171.92 54.1947 1172.48 54.04 1173.14 54.04H1173.24C1173.91 54.04 1174.46 54.1947 1174.9 54.504C1175.35 54.8027 1175.68 55.2507 1175.89 55.848C1176.12 56.4347 1176.23 57.1653 1176.23 58.04H1175.67C1175.67 57.1653 1175.78 56.4347 1176 55.848C1176.24 55.2507 1176.58 54.8027 1177.01 54.504C1177.46 54.1947 1178.02 54.04 1178.68 54.04H1178.77C1179.44 54.04 1180 54.1947 1180.45 54.504C1180.9 54.8027 1181.24 55.2507 1181.46 55.848C1181.7 56.4347 1181.81 57.1653 1181.81 58.04V63H1179.59V57.832C1179.59 57.288 1179.45 56.856 1179.17 56.536C1178.9 56.2053 1178.5 56.04 1177.99 56.04C1177.48 56.04 1177.07 56.2107 1176.76 56.552C1176.45 56.8827 1176.29 57.3307 1176.29 57.896V63H1174.07V57.832C1174.07 57.288 1173.93 56.856 1173.65 56.536C1173.38 56.2053 1172.98 56.04 1172.47 56.04C1171.96 56.04 1171.55 56.2107 1171.24 56.552C1170.93 56.8827 1170.77 57.3307 1170.77 57.896V63H1168.55ZM1187.35 63.272C1186.35 63.272 1185.57 62.9413 1185.01 62.28C1184.47 61.6187 1184.2 60.6373 1184.2 59.336V54.296H1186.42V59.528C1186.42 60.0613 1186.57 60.488 1186.87 60.808C1187.17 61.1173 1187.57 61.272 1188.09 61.272C1188.6 61.272 1189.01 61.1067 1189.33 60.776C1189.66 60.4453 1189.83 59.9973 1189.83 59.432V54.296H1192.05V63H1190.29V59.304H1190.47C1190.47 60.1787 1190.36 60.9093 1190.13 61.496C1189.91 62.0827 1189.57 62.5253 1189.13 62.824C1188.68 63.1227 1188.12 63.272 1187.45 63.272H1187.35ZM1194.81 63V54.312H1196.57V58.04H1196.41C1196.41 57.1547 1196.53 56.4187 1196.76 55.832C1196.99 55.2347 1197.34 54.7867 1197.8 54.488C1198.27 54.1893 1198.85 54.04 1199.54 54.04H1199.64C1200.67 54.04 1201.46 54.376 1201.99 55.048C1202.53 55.7093 1202.79 56.7013 1202.79 58.024V63H1200.57V57.832C1200.57 57.2987 1200.41 56.8667 1200.1 56.536C1199.81 56.2053 1199.39 56.04 1198.86 56.04C1198.31 56.04 1197.87 56.2107 1197.53 56.552C1197.2 56.8827 1197.03 57.3307 1197.03 57.896V63H1194.81ZM1205.8 63V54.312H1208.02V63H1205.8ZM1204.58 55.976V54.312H1208.02V55.976H1204.58ZM1206.61 53.272C1206.18 53.272 1205.85 53.16 1205.64 52.936C1205.44 52.7013 1205.33 52.408 1205.33 52.056C1205.33 51.704 1205.44 51.416 1205.64 51.192C1205.85 50.968 1206.18 50.856 1206.61 50.856C1207.05 50.856 1207.37 50.968 1207.57 51.192C1207.78 51.416 1207.88 51.704 1207.88 52.056C1207.88 52.408 1207.78 52.7013 1207.57 52.936C1207.37 53.16 1207.05 53.272 1206.61 53.272ZM1214.56 63.112C1213.76 63.112 1213.1 63.0107 1212.58 62.808C1212.07 62.5947 1211.68 62.2427 1211.43 61.752C1211.17 61.2507 1211.04 60.5787 1211.04 59.736L1211.06 51.864H1213.14L1213.12 59.88C1213.12 60.3067 1213.23 60.6373 1213.46 60.872C1213.69 61.096 1214.02 61.208 1214.45 61.208H1215.81V63.112H1214.56ZM1209.67 55.944V54.312H1215.81V55.944H1209.67ZM1217.62 66.424V64.52H1219.25C1219.56 64.52 1219.82 64.4773 1220.02 64.392C1220.23 64.3173 1220.41 64.1893 1220.55 64.008C1220.69 63.8373 1220.79 63.5973 1220.87 63.288L1223.2 54.312H1225.33L1222.76 63.768C1222.59 64.4187 1222.35 64.936 1222.04 65.32C1221.73 65.7147 1221.33 65.9973 1220.84 66.168C1220.36 66.3387 1219.76 66.424 1219.04 66.424H1217.62ZM1220.32 62.808V61.048H1222.18V62.808H1220.32ZM1219.57 62.808L1216.76 54.312H1219L1221.67 62.808H1219.57Z" fill="#7780A1"/>
<g filter="url(#filter0_ii_4_3830)">
<path d="M1634.14 63.304C1633.08 63.304 1632.17 63.1173 1631.42 62.744C1630.66 62.3707 1630.04 61.8853 1629.56 61.288C1629.09 60.6907 1628.74 60.04 1628.52 59.336C1628.3 58.632 1628.18 57.9547 1628.18 57.304V56.952C1628.18 56.2267 1628.3 55.512 1628.52 54.808C1628.75 54.104 1629.11 53.464 1629.59 52.888C1630.07 52.312 1630.68 51.8533 1631.42 51.512C1632.16 51.16 1633.04 50.984 1634.06 50.984C1635.11 50.984 1636.03 51.176 1636.81 51.56C1637.6 51.9333 1638.23 52.4667 1638.7 53.16C1639.16 53.8427 1639.45 54.6427 1639.54 55.56H1637.26C1637.17 55.0267 1636.98 54.5787 1636.68 54.216C1636.39 53.8427 1636.02 53.5653 1635.58 53.384C1635.13 53.192 1634.62 53.096 1634.06 53.096C1633.48 53.096 1632.97 53.1973 1632.52 53.4C1632.07 53.592 1631.7 53.8693 1631.4 54.232C1631.1 54.5947 1630.87 55.0213 1630.71 55.512C1630.56 56.0027 1630.49 56.5467 1630.49 57.144C1630.49 57.72 1630.56 58.2533 1630.71 58.744C1630.87 59.2347 1631.11 59.6667 1631.42 60.04C1631.72 60.4027 1632.1 60.6853 1632.55 60.888C1633.01 61.0907 1633.54 61.192 1634.14 61.192C1635.01 61.192 1635.75 60.9787 1636.34 60.552C1636.95 60.1147 1637.32 59.5067 1637.45 58.728H1639.74C1639.63 59.56 1639.35 60.3227 1638.89 61.016C1638.43 61.7093 1637.8 62.264 1637 62.68C1636.2 63.096 1635.24 63.304 1634.14 63.304ZM1645.85 63.304C1645.08 63.304 1644.41 63.1813 1643.82 62.936C1643.23 62.6907 1642.74 62.36 1642.33 61.944C1641.93 61.5173 1641.62 61.0373 1641.4 60.504C1641.2 59.9707 1641.1 59.416 1641.1 58.84V58.504C1641.1 57.9067 1641.21 57.3413 1641.42 56.808C1641.64 56.264 1641.96 55.784 1642.36 55.368C1642.78 54.9413 1643.28 54.6107 1643.87 54.376C1644.46 54.1307 1645.12 54.008 1645.85 54.008C1646.59 54.008 1647.25 54.1307 1647.84 54.376C1648.42 54.6107 1648.92 54.9413 1649.32 55.368C1649.74 55.784 1650.06 56.264 1650.27 56.808C1650.48 57.3413 1650.59 57.9067 1650.59 58.504V58.84C1650.59 59.416 1650.48 59.9707 1650.27 60.504C1650.07 61.0373 1649.76 61.5173 1649.36 61.944C1648.95 62.36 1648.46 62.6907 1647.87 62.936C1647.28 63.1813 1646.61 63.304 1645.85 63.304ZM1645.85 61.4C1646.4 61.4 1646.86 61.2827 1647.23 61.048C1647.6 60.8027 1647.88 60.4773 1648.08 60.072C1648.27 59.656 1648.36 59.1867 1648.36 58.664C1648.36 58.1307 1648.26 57.6613 1648.06 57.256C1647.87 56.84 1647.58 56.5147 1647.2 56.28C1646.82 56.0347 1646.38 55.912 1645.85 55.912C1645.33 55.912 1644.88 56.0347 1644.49 56.28C1644.12 56.5147 1643.83 56.84 1643.63 57.256C1643.43 57.6613 1643.32 58.1307 1643.32 58.664C1643.32 59.1867 1643.42 59.656 1643.61 60.072C1643.82 60.4773 1644.1 60.8027 1644.48 61.048C1644.85 61.2827 1645.31 61.4 1645.85 61.4ZM1652.74 63V54.312H1654.5V58.04H1654.34C1654.34 57.1547 1654.45 56.4187 1654.69 55.832C1654.92 55.2347 1655.27 54.7867 1655.73 54.488C1656.2 54.1893 1656.78 54.04 1657.47 54.04H1657.57C1658.6 54.04 1659.39 54.376 1659.92 55.048C1660.45 55.7093 1660.72 56.7013 1660.72 58.024V63H1658.5V57.832C1658.5 57.2987 1658.34 56.8667 1658.03 56.536C1657.73 56.2053 1657.32 56.04 1656.78 56.04C1656.24 56.04 1655.8 56.2107 1655.46 56.552C1655.13 56.8827 1654.96 57.3307 1654.96 57.896V63H1652.74ZM1667.09 63.112C1666.29 63.112 1665.63 63.0107 1665.1 62.808C1664.59 62.5947 1664.21 62.2427 1663.95 61.752C1663.69 61.2507 1663.57 60.5787 1663.57 59.736L1663.58 51.864H1665.66L1665.65 59.88C1665.65 60.3067 1665.76 60.6373 1665.98 60.872C1666.22 61.096 1666.55 61.208 1666.97 61.208H1668.33V63.112H1667.09ZM1662.19 55.944V54.312H1668.33V55.944H1662.19ZM1675.63 63V60.424H1675.27V57.56C1675.27 57.0587 1675.14 56.6853 1674.9 56.44C1674.65 56.1947 1674.27 56.072 1673.76 56.072C1673.5 56.072 1673.18 56.0773 1672.8 56.088C1672.43 56.0987 1672.05 56.1147 1671.67 56.136C1671.29 56.1467 1670.96 56.1627 1670.66 56.184V54.296C1670.9 54.2747 1671.18 54.2533 1671.49 54.232C1671.8 54.2107 1672.11 54.2 1672.43 54.2C1672.76 54.1893 1673.07 54.184 1673.36 54.184C1674.26 54.184 1675 54.3013 1675.59 54.536C1676.18 54.7707 1676.63 55.1387 1676.93 55.64C1677.24 56.1413 1677.39 56.7973 1677.39 57.608V63H1675.63ZM1672.83 63.224C1672.2 63.224 1671.65 63.112 1671.17 62.888C1670.7 62.664 1670.33 62.344 1670.07 61.928C1669.81 61.512 1669.68 61.0107 1669.68 60.424C1669.68 59.784 1669.84 59.2613 1670.15 58.856C1670.47 58.4507 1670.91 58.1467 1671.47 57.944C1672.05 57.7413 1672.72 57.64 1673.49 57.64H1675.51V58.968H1673.46C1672.95 58.968 1672.55 59.096 1672.27 59.352C1672.01 59.5973 1671.87 59.9173 1671.87 60.312C1671.87 60.7067 1672.01 61.0267 1672.27 61.272C1672.55 61.5173 1672.95 61.64 1673.46 61.64C1673.77 61.64 1674.05 61.5867 1674.31 61.48C1674.57 61.3627 1674.79 61.1707 1674.96 60.904C1675.14 60.6267 1675.24 60.2533 1675.27 59.784L1675.81 60.408C1675.76 61.016 1675.61 61.528 1675.36 61.944C1675.13 62.36 1674.8 62.68 1674.37 62.904C1673.95 63.1173 1673.44 63.224 1672.83 63.224ZM1683.83 63.304C1683.08 63.304 1682.42 63.176 1681.86 62.92C1681.32 62.664 1680.86 62.3227 1680.49 61.896C1680.13 61.4693 1679.85 60.9893 1679.67 60.456C1679.49 59.9227 1679.4 59.3787 1679.4 58.824V58.52C1679.4 57.9333 1679.49 57.3733 1679.67 56.84C1679.86 56.296 1680.15 55.816 1680.52 55.4C1680.89 54.9733 1681.35 54.6373 1681.9 54.392C1682.45 54.136 1683.09 54.008 1683.82 54.008C1684.57 54.008 1685.25 54.1573 1685.85 54.456C1686.45 54.744 1686.92 55.1493 1687.27 55.672C1687.64 56.1947 1687.84 56.8027 1687.88 57.496H1685.72C1685.67 57.048 1685.48 56.6747 1685.14 56.376C1684.82 56.0773 1684.38 55.928 1683.82 55.928C1683.33 55.928 1682.92 56.0453 1682.58 56.28C1682.26 56.5147 1682.02 56.84 1681.86 57.256C1681.7 57.6613 1681.62 58.1307 1681.62 58.664C1681.62 59.176 1681.7 59.64 1681.85 60.056C1682.01 60.472 1682.25 60.7973 1682.57 61.032C1682.9 61.2667 1683.32 61.384 1683.83 61.384C1684.22 61.384 1684.55 61.3147 1684.82 61.176C1685.1 61.0373 1685.32 60.8453 1685.48 60.6C1685.65 60.3547 1685.76 60.0773 1685.8 59.768H1687.96C1687.92 60.472 1687.71 61.0907 1687.34 61.624C1686.97 62.1467 1686.49 62.5573 1685.88 62.856C1685.28 63.1547 1684.6 63.304 1683.83 63.304ZM1693.72 63.112C1692.92 63.112 1692.26 63.0107 1691.73 62.808C1691.22 62.5947 1690.84 62.2427 1690.58 61.752C1690.33 61.2507 1690.2 60.5787 1690.2 59.736L1690.21 51.864H1692.29L1692.28 59.88C1692.28 60.3067 1692.39 60.6373 1692.61 60.872C1692.85 61.096 1693.18 61.208 1693.61 61.208H1694.97V63.112H1693.72ZM1688.82 55.944V54.312H1694.97V55.944H1688.82Z" fill="#7780A1"/>
<rect x="1604" y="33" width="115" height="50" rx="11" stroke="#262840" stroke-width="2"/>
</g>
<g filter="url(#filter1_ii_4_3830)">
<rect x="1736" y="32" width="145" height="52" rx="12" fill="url(#paint0_linear_4_3830)"/>
<path d="M1761.55 63V51.32H1764.65L1767.58 58.296H1767.87L1770.78 51.32H1773.93V63H1771.68V53.032L1771.96 53.064L1768.81 60.616H1766.49L1763.32 53.064L1763.63 53.032V63H1761.55ZM1776.58 66.424V64.52H1778.21C1778.52 64.52 1778.78 64.4773 1778.98 64.392C1779.19 64.3173 1779.37 64.1893 1779.51 64.008C1779.65 63.8373 1779.75 63.5973 1779.83 63.288L1782.17 54.312H1784.29L1781.72 63.768C1781.55 64.4187 1781.31 64.936 1781 65.32C1780.69 65.7147 1780.29 65.9973 1779.8 66.168C1779.32 66.3387 1778.72 66.424 1778.01 66.424H1776.58ZM1779.29 62.808V61.048H1781.14V62.808H1779.29ZM1778.53 62.808L1775.72 54.312H1777.96L1780.63 62.808H1778.53ZM1794.94 63V60.424H1794.57V57.56C1794.57 57.0587 1794.45 56.6853 1794.2 56.44C1793.96 56.1947 1793.58 56.072 1793.07 56.072C1792.8 56.072 1792.48 56.0773 1792.11 56.088C1791.73 56.0987 1791.35 56.1147 1790.97 56.136C1790.6 56.1467 1790.26 56.1627 1789.96 56.184V54.296C1790.21 54.2747 1790.49 54.2533 1790.79 54.232C1791.1 54.2107 1791.42 54.2 1791.74 54.2C1792.07 54.1893 1792.38 54.184 1792.67 54.184C1793.56 54.184 1794.3 54.3013 1794.89 54.536C1795.49 54.7707 1795.94 55.1387 1796.23 55.64C1796.54 56.1413 1796.7 56.7973 1796.7 57.608V63H1794.94ZM1792.14 63.224C1791.51 63.224 1790.95 63.112 1790.47 62.888C1790.01 62.664 1789.64 62.344 1789.37 61.928C1789.11 61.512 1788.99 61.0107 1788.99 60.424C1788.99 59.784 1789.14 59.2613 1789.45 58.856C1789.77 58.4507 1790.21 58.1467 1790.78 57.944C1791.35 57.7413 1792.03 57.64 1792.79 57.64H1794.81V58.968H1792.76C1792.25 58.968 1791.86 59.096 1791.58 59.352C1791.31 59.5973 1791.18 59.9173 1791.18 60.312C1791.18 60.7067 1791.31 61.0267 1791.58 61.272C1791.86 61.5173 1792.25 61.64 1792.76 61.64C1793.07 61.64 1793.35 61.5867 1793.61 61.48C1793.88 61.3627 1794.1 61.1707 1794.27 60.904C1794.45 60.6267 1794.55 60.2533 1794.57 59.784L1795.11 60.408C1795.06 61.016 1794.91 61.528 1794.67 61.944C1794.43 62.36 1794.1 62.68 1793.67 62.904C1793.26 63.1173 1792.75 63.224 1792.14 63.224ZM1803.14 63.304C1802.38 63.304 1801.72 63.176 1801.17 62.92C1800.63 62.664 1800.17 62.3227 1799.79 61.896C1799.43 61.4693 1799.16 60.9893 1798.98 60.456C1798.8 59.9227 1798.71 59.3787 1798.71 58.824V58.52C1798.71 57.9333 1798.8 57.3733 1798.98 56.84C1799.17 56.296 1799.45 55.816 1799.83 55.4C1800.2 54.9733 1800.66 54.6373 1801.2 54.392C1801.76 54.136 1802.4 54.008 1803.12 54.008C1803.88 54.008 1804.56 54.1573 1805.15 54.456C1805.75 54.744 1806.23 55.1493 1806.58 55.672C1806.94 56.1947 1807.14 56.8027 1807.19 57.496H1805.03C1804.97 57.048 1804.78 56.6747 1804.45 56.376C1804.13 56.0773 1803.69 55.928 1803.12 55.928C1802.63 55.928 1802.22 56.0453 1801.89 56.28C1801.57 56.5147 1801.33 56.84 1801.17 57.256C1801.01 57.6613 1800.93 58.1307 1800.93 58.664C1800.93 59.176 1801 59.64 1801.15 60.056C1801.31 60.472 1801.55 60.7973 1801.87 61.032C1802.2 61.2667 1802.63 61.384 1803.14 61.384C1803.52 61.384 1803.85 61.3147 1804.13 61.176C1804.41 61.0373 1804.63 60.8453 1804.79 60.6C1804.96 60.3547 1805.06 60.0773 1805.11 59.768H1807.27C1807.22 60.472 1807.01 61.0907 1806.64 61.624C1806.28 62.1467 1805.79 62.5573 1805.19 62.856C1804.59 63.1547 1803.91 63.304 1803.14 63.304ZM1813.1 63.304C1812.35 63.304 1811.69 63.176 1811.13 62.92C1810.59 62.664 1810.13 62.3227 1809.76 61.896C1809.4 61.4693 1809.12 60.9893 1808.94 60.456C1808.76 59.9227 1808.67 59.3787 1808.67 58.824V58.52C1808.67 57.9333 1808.76 57.3733 1808.94 56.84C1809.13 56.296 1809.42 55.816 1809.79 55.4C1810.16 54.9733 1810.62 54.6373 1811.17 54.392C1811.72 54.136 1812.36 54.008 1813.09 54.008C1813.84 54.008 1814.52 54.1573 1815.12 54.456C1815.72 54.744 1816.19 55.1493 1816.54 55.672C1816.91 56.1947 1817.11 56.8027 1817.15 57.496H1814.99C1814.94 57.048 1814.75 56.6747 1814.41 56.376C1814.09 56.0773 1813.65 55.928 1813.09 55.928C1812.6 55.928 1812.19 56.0453 1811.85 56.28C1811.53 56.5147 1811.29 56.84 1811.13 57.256C1810.97 57.6613 1810.89 58.1307 1810.89 58.664C1810.89 59.176 1810.97 59.64 1811.12 60.056C1811.28 60.472 1811.52 60.7973 1811.84 61.032C1812.17 61.2667 1812.59 61.384 1813.1 61.384C1813.49 61.384 1813.82 61.3147 1814.09 61.176C1814.37 61.0373 1814.59 60.8453 1814.75 60.6C1814.92 60.3547 1815.03 60.0773 1815.07 59.768H1817.23C1817.19 60.472 1816.98 61.0907 1816.61 61.624C1816.24 62.1467 1815.76 62.5573 1815.15 62.856C1814.55 63.1547 1813.87 63.304 1813.1 63.304ZM1823.39 63.304C1822.62 63.304 1821.94 63.1813 1821.36 62.936C1820.77 62.6907 1820.27 62.36 1819.87 61.944C1819.46 61.5173 1819.15 61.0373 1818.94 60.504C1818.74 59.9707 1818.64 59.416 1818.64 58.84V58.504C1818.64 57.9067 1818.74 57.3413 1818.96 56.808C1819.18 56.264 1819.5 55.784 1819.9 55.368C1820.32 54.9413 1820.82 54.6107 1821.4 54.376C1821.99 54.1307 1822.65 54.008 1823.39 54.008C1824.12 54.008 1824.79 54.1307 1825.37 54.376C1825.96 54.6107 1826.46 54.9413 1826.86 55.368C1827.28 55.784 1827.59 56.264 1827.8 56.808C1828.02 57.3413 1828.12 57.9067 1828.12 58.504V58.84C1828.12 59.416 1828.02 59.9707 1827.8 60.504C1827.6 61.0373 1827.3 61.5173 1826.89 61.944C1826.49 62.36 1825.99 62.6907 1825.4 62.936C1824.82 63.1813 1824.15 63.304 1823.39 63.304ZM1823.39 61.4C1823.93 61.4 1824.39 61.2827 1824.76 61.048C1825.14 60.8027 1825.42 60.4773 1825.61 60.072C1825.8 59.656 1825.9 59.1867 1825.9 58.664C1825.9 58.1307 1825.8 57.6613 1825.6 57.256C1825.4 56.84 1825.12 56.5147 1824.73 56.28C1824.36 56.0347 1823.91 55.912 1823.39 55.912C1822.87 55.912 1822.41 56.0347 1822.03 56.28C1821.66 56.5147 1821.37 56.84 1821.16 57.256C1820.96 57.6613 1820.86 58.1307 1820.86 58.664C1820.86 59.1867 1820.96 59.656 1821.15 60.072C1821.35 60.4773 1821.64 60.8027 1822.01 61.048C1822.39 61.2827 1822.84 61.4 1823.39 61.4ZM1833.23 63.272C1832.23 63.272 1831.45 62.9413 1830.9 62.28C1830.35 61.6187 1830.08 60.6373 1830.08 59.336V54.296H1832.3V59.528C1832.3 60.0613 1832.45 60.488 1832.75 60.808C1833.05 61.1173 1833.46 61.272 1833.97 61.272C1834.48 61.272 1834.9 61.1067 1835.22 60.776C1835.55 60.4453 1835.71 59.9973 1835.71 59.432V54.296H1837.94V63H1836.18V59.304H1836.35C1836.35 60.1787 1836.24 60.9093 1836.02 61.496C1835.79 62.0827 1835.46 62.5253 1835.01 62.824C1834.56 63.1227 1834 63.272 1833.33 63.272H1833.23ZM1840.69 63V54.312H1842.45V58.04H1842.29C1842.29 57.1547 1842.41 56.4187 1842.64 55.832C1842.88 55.2347 1843.22 54.7867 1843.68 54.488C1844.15 54.1893 1844.73 54.04 1845.43 54.04H1845.52C1846.56 54.04 1847.34 54.376 1847.87 55.048C1848.41 55.7093 1848.67 56.7013 1848.67 58.024V63H1846.45V57.832C1846.45 57.2987 1846.3 56.8667 1845.99 56.536C1845.69 56.2053 1845.27 56.04 1844.74 56.04C1844.19 56.04 1843.75 56.2107 1843.41 56.552C1843.08 56.8827 1842.91 57.3307 1842.91 57.896V63H1840.69ZM1855.04 63.112C1854.24 63.112 1853.58 63.0107 1853.06 62.808C1852.55 62.5947 1852.16 62.2427 1851.91 61.752C1851.65 61.2507 1851.52 60.5787 1851.52 59.736L1851.54 51.864H1853.62L1853.6 59.88C1853.6 60.3067 1853.71 60.6373 1853.94 60.872C1854.17 61.096 1854.5 61.208 1854.93 61.208H1856.29V63.112H1855.04ZM1850.15 55.944V54.312H1856.29V55.944H1850.15Z" fill="white"/>
</g>
<path d="M99.5518 68.0002V48.1504H106.866L114.344 64.3837H115.268L114.725 64.8732V48.1504H118.912V68.0002H111.543L104.066 51.7669H103.141L103.685 51.2774V68.0002H99.5518Z" fill="#060714"/>
<path d="M123.597 68.0002V48.1504H128.057V68.0002H123.597ZM127.513 60.0059V56.3078H135.181V60.0059H127.513ZM127.513 51.8484V48.1504H135.507V51.8484H127.513Z" fill="#060714"/>
<path d="M143.221 68.0002V51.4949H147.681V68.0002H143.221ZM137.647 52.0388V48.1504H153.282V52.0388H137.647Z" fill="#060714"/>
<path d="M162.25 68.0002V48.1504H168.395L172.936 59.2989H173.453L177.939 48.1504H184.193V68.0002H179.788V51.0599L180.414 51.1143L175.166 63.9758H170.924L165.649 51.1143L166.328 51.0599V68.0002H162.25Z" fill="#060714"/>
<path d="M197.627 68.0002V63.5952H196.893V58.8095C196.893 58.0481 196.711 57.4771 196.349 57.0964C195.986 56.7157 195.406 56.5254 194.609 56.5254C194.21 56.5254 193.684 56.5344 193.031 56.5526C192.379 56.5707 191.708 56.5979 191.019 56.6341C190.33 56.6704 189.705 56.7066 189.143 56.7429V53.0721C189.56 53.0358 190.049 52.9995 190.611 52.9633C191.173 52.927 191.753 52.8998 192.352 52.8817C192.95 52.8636 193.512 52.8545 194.038 52.8545C195.56 52.8545 196.838 53.072 197.872 53.5071C198.923 53.9422 199.721 54.6038 200.264 55.4921C200.808 56.3622 201.08 57.4861 201.08 58.8638V68.0002H197.627ZM192.868 68.3809C191.799 68.3809 190.856 68.1905 190.04 67.8098C189.243 67.4292 188.617 66.8853 188.164 66.1783C187.711 65.4532 187.484 64.5922 187.484 63.5952C187.484 62.5075 187.765 61.6192 188.327 60.9304C188.889 60.2234 189.678 59.7068 190.693 59.3805C191.708 59.0361 192.877 58.8638 194.201 58.8638H197.382V61.2839H194.174C193.412 61.2839 192.823 61.4742 192.406 61.8549C192.007 62.2175 191.808 62.716 191.808 63.3504C191.808 63.9486 192.007 64.4381 192.406 64.8188C192.823 65.1813 193.412 65.3626 194.174 65.3626C194.663 65.3626 195.098 65.281 195.479 65.1179C195.878 64.9366 196.204 64.6375 196.458 64.2206C196.711 63.8036 196.856 63.2235 196.893 62.4803L197.926 63.568C197.835 64.6012 197.582 65.4714 197.165 66.1783C196.766 66.8853 196.204 67.4292 195.479 67.8098C194.772 68.1905 193.902 68.3809 192.868 68.3809Z" fill="#060714"/>
<path d="M204.998 68.0002V53.0992H208.451V59.4892H208.37C208.37 57.3864 208.814 55.764 209.702 54.622C210.609 53.4799 211.914 52.9089 213.618 52.9089H214.189V56.6613H213.101C211.905 56.6613 210.98 56.9876 210.328 57.6402C209.675 58.2747 209.349 59.1992 209.349 60.4138V68.0002H204.998Z" fill="#060714"/>
<path d="M227.165 68.0002L222.461 61.0392H220.368L226.431 53.0992H230.999L225.289 60.4953L225.344 58.3744L232.06 68.0002H227.165ZM216.669 68.0002V48.1504H221.02V68.0002H216.669Z" fill="#060714"/>
<path d="M240.503 68.5168C239.234 68.5168 238.111 68.2993 237.132 67.8642C236.171 67.4292 235.364 66.8491 234.712 66.124C234.077 65.3807 233.588 64.5559 233.243 63.6495C232.917 62.725 232.754 61.7824 232.754 60.8216V60.2778C232.754 59.2808 232.917 58.3291 233.243 57.4227C233.588 56.4982 234.077 55.6734 234.712 54.9483C235.346 54.2232 236.135 53.6521 237.077 53.2352C238.038 52.8001 239.126 52.5826 240.34 52.5826C241.935 52.5826 243.277 52.9452 244.365 53.6703C245.47 54.3772 246.313 55.3108 246.893 56.471C247.473 57.613 247.764 58.8638 247.764 60.2234V61.6918H234.576V59.2173H245.126L243.712 60.3594C243.712 59.4711 243.585 58.7098 243.331 58.0753C243.077 57.4408 242.697 56.9604 242.189 56.6341C241.7 56.2897 241.083 56.1175 240.34 56.1175C239.579 56.1175 238.935 56.2897 238.41 56.6341C237.884 56.9786 237.485 57.4861 237.213 58.1569C236.941 58.8095 236.805 59.6161 236.805 60.5769C236.805 61.4652 236.932 62.2446 237.186 62.9154C237.44 63.568 237.839 64.0755 238.382 64.4381C238.926 64.8006 239.633 64.9819 240.503 64.9819C241.301 64.9819 241.954 64.8278 242.461 64.5197C242.969 64.2115 243.313 63.8308 243.494 63.3776H247.492C247.274 64.3746 246.848 65.2629 246.214 66.0424C245.579 66.8219 244.782 67.4292 243.821 67.8642C242.86 68.2993 241.754 68.5168 240.503 68.5168Z" fill="#060714"/>
<path d="M257.644 68.1905C256.139 68.1905 254.925 68.0092 254 67.6467C253.076 67.266 252.396 66.6406 251.961 65.7705C251.544 64.8822 251.335 63.6858 251.335 62.1812V49.0749H255.387V62.3443C255.387 63.0513 255.568 63.5952 255.931 63.9758C256.311 64.3384 256.846 64.5197 257.535 64.5197H259.737V68.1905H257.644ZM249.078 56.2806V53.0992H259.737V56.2806H249.078Z" fill="#060714"/>
<path d="M48 72.6002C53.6333 72.6002 58.2 68.0335 58.2 62.4002C58.2 56.7669 53.6333 52.2002 48 52.2002V59.3402C49.69 59.3402 51.06 60.7102 51.06 62.4002C51.06 64.0902 49.69 65.4602 48 65.4602V72.6002Z" fill="#76DECC"/>
<path d="M81.9997 55.6001C80.2567 55.0479 78.4005 54.75 76.4747 54.75C66.3816 54.75 58.1997 62.9321 58.1997 73.025C58.1997 74.0381 58.2821 75.0319 58.4406 76H69.7955C69.3901 75.0913 69.1648 74.0845 69.1648 73.025C69.1648 68.9878 72.4375 65.715 76.4747 65.715C78.6812 65.715 80.6593 66.6927 81.9997 68.2384V55.6001Z" fill="#EA6CBC"/>
<path d="M49.7935 42C50.6391 49.6499 57.1248 55.6001 65.0001 55.6001C72.8753 55.6001 79.361 49.6499 80.2067 42H69.2649C68.5894 43.6934 66.9344 44.89 65.0001 44.89C63.0657 44.89 61.4108 43.6934 60.7352 42H49.7935Z" fill="#2A27C9"/>
<defs>
<filter id="filter0_ii_4_3830" x="1599" y="28" width="125" height="60" filterUnits="userSpaceOnUse" color-interpolation-filters="sRGB">
<feFlood flood-opacity="0" result="BackgroundImageFix"/>
<feBlend mode="normal" in="SourceGraphic" in2="BackgroundImageFix" result="shape"/>
<feColorMatrix in="SourceAlpha" type="matrix" values="0 0 0 0 0 0 0 0 0 0 0 0 0 0 0 0 0 0 127 0" result="hardAlpha"/>
<feOffset dx="4" dy="4"/>
<feGaussianBlur stdDeviation="2"/>
<feComposite in2="hardAlpha" operator="arithmetic" k2="-1" k3="1"/>
<feColorMatrix type="matrix" values="0 0 0 0 1 0 0 0 0 1 0 0 0 0 1 0 0 0 0.1 0"/>
<feBlend mode="normal" in2="shape" result="effect1_innerShadow_4_3830"/>
<feColorMatrix in="SourceAlpha" type="matrix" values="0 0 0 0 0 0 0 0 0 0 0 0 0 0 0 0 0 0 127 0" result="hardAlpha"/>
<feOffset dx="-4" dy="-4"/>
<feGaussianBlur stdDeviation="2"/>
<feComposite in2="hardAlpha" operator="arithmetic" k2="-1" k3="1"/>
<feColorMatrix type="matrix" values="0 0 0 0 0 0 0 0 0 0 0 0 0 0 0 0 0 0 0.1 0"/>
<feBlend mode="normal" in2="effect1_innerShadow_4_3830" result="effect2_innerShadow_4_3830"/>
</filter>
<filter id="filter1_ii_4_3830" x="1732" y="28" width="153" height="60" filterUnits="userSpaceOnUse" color-interpolation-filters="sRGB">
<feFlood flood-opacity="0" result="BackgroundImageFix"/>
<feBlend mode="normal" in="SourceGraphic" in2="BackgroundImageFix" result="shape"/>
<feColorMatrix in="SourceAlpha" type="matrix" values="0 0 0 0 0 0 0 0 0 0 0 0 0 0 0 0 0 0 127 0" result="hardAlpha"/>
<feOffset dx="4" dy="4"/>
<feGaussianBlur stdDeviation="2"/>
<feComposite in2="hardAlpha" operator="arithmetic" k2="-1" k3="1"/>
<feColorMatrix type="matrix" values="0 0 0 0 1 0 0 0 0 1 0 0 0 0 1 0 0 0 0.1 0"/>
<feBlend mode="normal" in2="shape" result="effect1_innerShadow_4_3830"/>
<feColorMatrix in="SourceAlpha" type="matrix" values="0 0 0 0 0 0 0 0 0 0 0 0 0 0 0 0 0 0 127 0" result="hardAlpha"/>
<feOffset dx="-4" dy="-4"/>
<feGaussianBlur stdDeviation="2"/>
<feComposite in2="hardAlpha" operator="arithmetic" k2="-1" k3="1"/>
<feColorMatrix type="matrix" values="0 0 0 0 0 0 0 0 0 0 0 0 0 0 0 0 0 0 0.1 0"/>
<feBlend mode="normal" in2="effect1_innerShadow_4_3830" result="effect2_innerShadow_4_3830"/>
</filter>
<linearGradient id="paint0_linear_4_3830" x1="1736" y1="32" x2="1808.5" y2="84" gradientUnits="userSpaceOnUse">
<stop stop-color="#4745D0"/>
<stop offset="1" stop-color="#2A27C9"/>
</linearGradient>
</defs>
</svg>
